PathFileType	4	(X/Y/Z)	D:\Share\Shared_Data\Ergonomics\Sit To Stand Pertubation\S3\Unperturbed.trc
DataRate	CameraRate	NumFrames	NumMarkers	Units	OrigDataRate	OrigDataStartFrame	OrigNumFrames	
100	100	12	18	m	100	4701	191
Frame#	Time	R_Thigh			R_ASIS			R_Pelvis			V_Sacral			L_Pelvis			L_ASIS			Clavical			R_Acromium			L_Acromium			Sternum			Torso			R_Thigh_Med			R_Thigh_Lat			R_Shank_Med			R_Shank_Lat			R_Shank			R_Heel			R_Toe			
		X1	Y1	Z1	X2	Y2	Z2	X3	Y3	Z3	X4	Y4	Z4	X5	Y5	Z5	X6	Y6	Z6	X7	Y7	Z7	X8	Y8	Z8	X9	Y9	Z9	X10	Y10	Z10	X11	Y11	Z11	X12	Y12	Z12	X13	Y13	Z13	X14	Y14	Z14	X15	Y15	Z15	X16	Y16	Z16	X17	Y17	Z17	X18	Y18	Z18	

4701	47	0.15344421	0.57847137	0.1177859	-0.013684579	0.64875415	0.14402348	-0.12315196	0.62963501	0.19819926	-0.23032762	0.62316339	0.012476512	-0.11965259	0.64961334	-0.18588837	-0.011986272	0.64615088	-0.13381712	-0.061026207	1.0410704	-0.0029028184	-0.11822026	1.0951826	0.1715594	-0.11944533	1.097736	-0.15963889	-0.032329182	0.96928406	0.0045715194	-0.058629742	1.0290027	-0.065774567	0.34020032	0.47537006	0.094099464	0.31961841	0.44755429	0.2055166	0.25966379	0.10857368	0.094547165	0.23527209	0.099288292	0.17490149	0.25976007	0.27183148	0.20396971	0.18096336	0.051230343	0.11901163	0.39790027	0.056012947	0.13831226
4702	47.01	0.1534675	0.5784798	0.11777749	-0.013697844	0.64880084	0.14394165	-0.12310988	0.62968213	0.19818283	-0.23028824	0.62316437	0.01248257	-0.1196414	0.64960046	-0.18589833	-0.011967953	0.64615686	-0.13382979	-0.061096798	1.0410092	-0.003132787	-0.11825504	1.0951921	0.17133615	-0.11948392	1.0976249	-0.15988297	-0.032400978	0.96922931	0.0043168364	-0.058701321	1.0289014	-0.066011719	0.34025089	0.47550009	0.094134796	0.31965555	0.44756171	0.20550113	0.25966647	0.10857752	0.094546196	0.23528928	0.099328445	0.17488939	0.25977002	0.2718436	0.20396259	0.18097205	0.051222469	0.11899423	0.39790213	0.056012218	0.13830991
4703	47.02	0.15347371	0.57849164	0.11776271	-0.013735368	0.64885223	0.14385944	-0.12309774	0.62972034	0.19815245	-0.23027762	0.62314978	0.012478475	-0.11965515	0.64957544	-0.18591132	-0.011981106	0.64616113	-0.13384319	-0.061164139	1.0409371	-0.0033510036	-0.11827181	1.0951815	0.17112315	-0.11946143	1.0975222	-0.16012393	-0.032477123	0.9691532	0.0040641522	-0.058754684	1.0287921	-0.066227997	0.34027823	0.47556	0.09410611	0.31967581	0.44757214	0.20548111	0.2596687	0.10858104	0.094545135	0.2352942	0.099362991	0.17487921	0.25977408	0.27185742	0.20395444	0.18097893	0.051198692	0.11896585	0.3979028	0.056012577	0.13830679
4704	47.03	0.15346185	0.57850635	0.11774186	-0.013796015	0.64890546	0.14377971	-0.12311575	0.62975	0.19810939	-0.23029553	0.62312109	0.012463629	-0.11969229	0.64953955	-0.18592708	-0.012025668	0.64616504	-0.13385744	-0.061225159	1.0408571	-0.0035581317	-0.11826833	1.0951547	0.17092143	-0.11938455	1.0974318	-0.1603573	-0.032555645	0.96905865	0.0038174431	-0.058792595	1.0286781	-0.066422379	0.34028436	0.4755816	0.094043953	0.31967642	0.44758652	0.20545616	0.25967081	0.10858404	0.094543831	0.23528491	0.099396088	0.17487334	0.2597717	0.27187253	0.20394508	0.18098334	0.051159424	0.11892654	0.39790259	0.056013596	0.13830328
4705	47.04	0.15343188	0.57852356	0.117716	-0.013878671	0.64895795	0.14370453	-0.12316401	0.62977203	0.19805586	-0.23034027	0.62308014	0.012438069	-0.11975053	0.64949432	-0.18594525	-0.012101106	0.64616949	-0.13387254	-0.061276794	1.0407709	-0.0037541623	-0.11824269	1.0951173	0.1707316	-0.11926274	1.0973544	-0.16057973	-0.032634605	0.96894946	0.003581799	-0.058817352	1.0285616	-0.066595573	0.3402717	0.47558713	0.093969963	0.3196553	0.44760574	0.20542606	0.25967267	0.10858634	0.094542145	0.23526271	0.099429611	0.17487099	0.25976144	0.27188876	0.20393423	0.18098456	0.051108932	0.11887963	0.39790155	0.056014992	0.1382997
4706	47.05	0.15338437	0.57854315	0.11768665	-0.013982085	0.64900787	0.14363486	-0.12324232	0.62978699	0.19799451	-0.23040869	0.62302942	0.012402395	-0.11982718	0.64944208	-0.18596536	-0.012205733	0.64617529	-0.13388847	-0.061316452	1.0406813	-0.0039382637	-0.1181944	1.0950754	0.17055342	-0.11910658	1.097288	-0.16079065	-0.032711903	0.96882965	0.0033626058	-0.058830391	1.0284448	-0.066749588	0.3402424	0.47558862	0.093897781	0.31961139	0.44763028	0.20539061	0.25967401	0.10858788	0.094540131	0.23523384	0.099462997	0.17486877	0.25974161	0.27190607	0.2039216	0.18098242	0.051056725	0.11883297	0.39789963	0.056016766	0.13829645
4707	47.06	0.15332051	0.57856458	0.11765528	-0.014104818	0.64905414	0.14357085	-0.12334979	0.62979541	0.19792816	-0.23049692	0.62297162	0.012357551	-0.1199192	0.64938464	-0.18598618	-0.012336146	0.64618213	-0.13390509	-0.061342285	1.0405898	-0.0041094112	-0.11812453	1.0950343	0.17038605	-0.11892577	1.0972299	-0.16099123	-0.032785137	0.96870294	0.0031643076	-0.058832268	1.0283285	-0.066887344	0.34019885	0.47559131	0.093834801	0.31954559	0.44766034	0.20535002	0.2596745	0.10858869	0.094538055	0.23520876	0.099493652	0.1748625	0.25971094	0.27192419	0.20390654	0.18097714	0.051019733	0.11880091	0.39789658	0.056019234	0.13829364
4708	47.07	0.15324196	0.57858783	0.11762299	-0.014245213	0.64909698	0.14351231	-0.12348412	0.6297984	0.19785963	-0.23060062	0.62290979	0.012304599	-0.12002329	0.64932385	-0.18600572	-0.012487082	0.64618829	-0.13392189	-0.061353374	1.0404988	-0.0042669959	-0.11803557	1.0949977	0.17022856	-0.11872762	1.0971783	-0.16118188	-0.032851917	0.96857275	0.0029897254	-0.058822861	1.0282133	-0.067011711	0.34014471	0.47559808	0.093783913	0.31946027	0.44769543	0.20530461	0.25967371	0.10858885	0.094536186	0.23519466	0.099518547	0.17484998	0.25966974	0.27194281	0.20388872	0.18096872	0.051025677	0.11880673	0.39789227	0.056022736	0.13829108
4709	47.08	0.15315096	0.57861255	0.11759052	-0.014401254	0.64913751	0.14345891	-0.12364098	0.62979755	0.19779167	-0.23071567	0.6228465	0.012244713	-0.12013659	0.64926184	-0.18602284	-0.012652052	0.64619135	-0.13393816	-0.061349648	1.0404102	-0.0044108863	-0.11793105	1.094968	0.17008006	-0.11851714	1.097135	-0.16136148	-0.032910316	0.96844226	0.0028401215	-0.058801517	1.0280999	-0.06712458	0.34008478	0.47561188	0.093744804	0.31935931	0.44773453	0.20525505	0.2596713	0.10858825	0.094534523	0.23518881	0.099536209	0.17483197	0.25961978	0.27196136	0.20386821	0.18095685	0.051114601	0.11888385	0.39788666	0.056027309	0.13828867
4710	47.09	0.15305025	0.57863831	0.11755864	-0.014570217	0.64917682	0.14341028	-0.12381393	0.62979443	0.19772662	-0.23083832	0.62278406	0.012179261	-0.12025717	0.64920032	-0.18603912	-0.012824455	0.6461889	-0.13395271	-0.061331688	1.0403267	-0.0045411987	-0.11781512	1.0949463	0.16993991	-0.11829819	1.0971029	-0.16152757	-0.03295916	0.968315	0.0027155221	-0.058767216	1.0279908	-0.067226311	0.34002328	0.47563419	0.093715149	0.31924789	0.44777615	0.20520233	0.25966687	0.10858668	0.094532761	0.23518243	0.099547195	0.17481024	0.25956381	0.27197906	0.20384554	0.18094095	0.051336517	0.11907425	0.39788013	0.056032818	0.13828627
4711	47.1	0.15294325	0.57866467	0.11752821	-0.014748437	0.64921552	0.14336584	-0.12399542	0.62979065	0.19766608	-0.23096497	0.62272443	0.012109811	-0.12038417	0.6491413	-0.18605823	-0.012998645	0.64617999	-0.13396486	-0.061300377	1.0402509	-0.0046581163	-0.11769208	1.0949326	0.16980775	-0.11807426	1.097084	-0.16167783	-0.032997688	0.96819434	0.0026148534	-0.058718861	1.027889	-0.067316376	0.33996243	0.47566394	0.093691765	0.31913232	0.44781812	0.20514774	0.2596601	0.10858405	0.094530373	0.23516794	0.099553253	0.17478583	0.25950482	0.27199515	0.20382124	0.18092049	0.051745586	0.11942419	0.39787311	0.056039196	0.13828383
4712	47.11	0.15283371	0.57869116	0.11749997	-0.014931501	0.64925323	0.14332506	-0.12417807	0.62978693	0.19761049	-0.23109209	0.62266846	0.012037951	-0.12051695	0.64908551	-0.18608334	-0.013170467	0.64616565	-0.1339747	-0.061256706	1.0401848	-0.0047616329	-0.11756602	1.0949275	0.16968394	-0.11784817	1.0970789	-0.16181137	-0.033025139	0.96808337	0.0025360465	-0.058655754	1.0277981	-0.067394318	0.33990274	0.47569769	0.093671883	0.31901868	0.44785809	0.20509273	0.25965118	0.10858043	0.094526978	0.23514101	0.099556656	0.17475908	0.25944528	0.27200873	0.20379568	0.18089514	0.052388889	0.11997441	0.39786588	0.056046341	0.13828122
